<?xml version="1.0" encoding="utf-8"?>
<!-- Generator: Adobe Illustrator 19.2.1, SVG Export Plug-In . SVG Version: 6.00 Build 0)  -->
<svg version="1.1" id="layer" xmlns="http://www.w3.org/2000/svg" xmlns:xlink="http://www.w3.org/1999/xlink" x="0px" y="0px"
	 viewBox="0 0 652 652" style="enable-background:new 0 0 652 652;" xml:space="preserve">
<style type="text/css">
	.st0{fill:#06466A;}
	.st1{fill:#FF8A00;}
</style>
<path class="st0" d="M326,385.8c-0.5,3-0.9,6.1-1.4,9.2c0.6,0,0.7-0.4,0.9-0.6c1.7-2,3.5-3.9,5.5-5.7c1.6-1.4,3.4-2.5,5.3-3.3
	c3.3-1.4,7-1.1,10,0.9c0.3,0.2,0.6,0.5,1,0.6c0.2-0.4-0.3-0.7-0.1-1.1c0.3-0.1,0.6-0.1,1-0.1H365c1.2,0,1.2,0,1.6,1.1l11.8,35.1
	c0.1,0.3,0.2,0.7,0.4,1.1c0.5-0.2,0.5-0.7,0.7-1.1c5.3-11.6,10.5-23.2,15.8-34.8c0,0,0-0.1,0-0.1c0.2-1,0.8-1.3,1.9-1.3
	c6.9,0.1,13.7,0.1,20.6,0.1h57.1c1.5,0,1.4-0.4,1.4,1.5c-0.1,0.5-0.2,0.9-0.6,1.3c-4.9,7.6-9.8,15.1-14.7,22.7
	c-4,6.2-8,12.3-12,18.5c-0.2,0.3-0.4,0.7-0.7,1.1h25.7c0-0.4-0.1-0.8-0.3-1.1c-3.4-10-2.9-19.7,2.4-28.9c4-6.9,10.1-11.3,17.6-13.9
	c6.3-2.1,12.7-2.7,19.3-2.3c4.4,0.2,8.8,1,12.9,2.5c9.6,3.5,16.3,9.9,19.8,19.6c0,0.3,0.2,0.5,0.4,0.7c0.7-2.3,1.7-4.6,3-6.7
	c4.1-6.9,10.1-11.3,17.7-13.9c6.2-2.1,12.6-2.7,19.1-2.3c4.5,0.2,9,1,13.3,2.6c10.8,4,17.9,11.4,20.5,22.7c2.4,10.3,0.6,20-6.1,28.5
	c-4.3,5.5-10.1,8.9-16.8,10.9c-5.6,1.6-11.5,2.2-17.4,1.8c-4.8-0.2-9.5-1.1-14-2.8c-9.3-3.6-15.8-10-19.1-19.5
	c-0.1-0.2-0.2-0.4-0.2-0.5c-0.2,0.1-0.3,0.3-0.3,0.4c-3.7,10.6-11.1,17.2-21.6,20.5c-5.7,1.8-11.6,2.3-17.6,1.9
	c-4.5-0.2-8.9-1-13.2-2.5c-7.7-2.7-13.7-7.4-17.8-14.5c-0.1-0.1-0.1-0.2-0.2-0.3c0,0-0.1,0-0.2-0.1c-0.1,0.3-0.1,0.7-0.1,1v14.2
	c0,1.1,0.1,1.1-1.1,1.1h-64.7c-0.4,0.1-0.7,0-1.1-0.2c9.4-15,18.8-29.9,28.4-45.1h-25.1c-1.5,0-1.3,0.1-1.3-1.3v-5.9
	c-0.5,0.2-0.6,0.7-0.7,1c-5.7,11.7-11.3,23.4-17,35.1c-7.7,15.8-15.3,31.6-23,47.5c-0.1,0.3-0.3,0.6-0.4,0.9
	c-0.1,0.3-0.4,0.5-0.8,0.5h-18.9c-0.2,0-0.3,0-0.5,0c-0.2-0.5,0.2-0.8,0.3-1.2c4.5-9.4,9.1-18.7,13.7-28.1c1.3-2.7,2.7-5.5,4-8.2
	c0.3-0.6,0.4-1.4,0.1-2c-5.2-14.8-10.5-29.6-15.7-44.4c-0.4-1.1-0.8-2.2-1.2-3.5c-0.7,1.1-1.4,2.3-1.9,3.5c-0.6,1.2-1.2,2.4-1.8,3.5
	c-0.6,1.2-1.2,2.3-1.7,3.4c-0.6,1.1-1.2,2.3-1.9,3.6c-0.3-0.4-0.5-0.7-0.8-1c-1-1.5-2.2-2.8-3.6-4c-2.6-2.1-5.4-2.4-8.4-0.9
	c-3.4,1.8-5.9,4.6-7.8,8c-0.5,1-0.5,2.1-0.6,3.2c-1.1,7.3-2.1,14.6-3.1,21.9c-0.6,4.2-1.2,8.4-1.8,12.6c-0.1,0.9-0.1,0.9-1,0.9
	h-17.5c-0.8,0-0.9,0-0.7-0.9c0.6-4.2,1.2-8.3,1.8-12.5c0.7-4.8,1.4-9.7,2.1-14.5c0.8-5.4,1.5-10.8,2.3-16.2c0.7-4.8,1.4-9.6,2-14.4
	c0.2-1.7,0.5-3.4,0.7-5.1c0.1-0.5,0.2-0.7,0.7-0.7c6.1,0,12.2,0,18.3,0C325.8,385.7,325.8,385.7,326,385.8L326,385.8z M509.6,430.1
	h1.2c5.3-0.3,9.5-3.6,10.9-8.5c0.6-2,0.7-4.1,0.3-6.2c-0.8-4.2-3-7.3-7-9.1c-2.2-0.9-4.5-1.2-6.8-1c-5,0.3-9.2,3.7-10.6,8.4
	c-0.6,2.1-0.7,4.4-0.3,6.5c0.8,4.2,3.2,7.2,7.2,8.8C506.1,429.9,507.9,430.2,509.6,430.1L509.6,430.1z M582.8,405.4
	c-0.5,0-1,0-1.4,0c-5.2,0.2-9.6,3.9-10.8,9c-0.3,1.4-0.5,2.9-0.4,4.4c0.2,5,3.5,9.3,8.3,10.7c2.8,0.9,5.7,0.9,8.5,0
	c3.9-1.1,6.9-4.2,7.9-8.2c0.5-1.9,0.6-3.8,0.3-5.7c-0.7-4.7-3.3-7.9-7.7-9.5C586,405.5,584.4,405.3,582.8,405.4L582.8,405.4z
	 M181.4,452.2c-0.6-0.3-1-0.5-1.3-0.8c-2.2-1.3-4.2-3-5.6-5.2c-4-6.2-1-12,3-14.6c2.1-1.3,4.4-2.3,6.8-2.9l1.1-0.3
	c-0.1-0.4-0.5-0.5-0.8-0.7c-2.4-1.5-4.5-3.4-6.2-5.6c-2.3-3-3.7-6.6-3.8-10.4c-0.5-9.7,3.9-16.8,11.9-21.8c3.8-2.4,8-3.5,12.3-4.1
	c1.6-0.2,3.3-0.2,4.9-0.2h35.2c0.2,0.3,0.2,0.7,0.1,1c-0.5,4.1-1.1,8.3-1.6,12.4c-0.1,0.7-0.4,0.8-1,0.8H227c-0.2,0.4,0,0.6,0.1,0.8
	c5.2,10.7,0.8,26.6-14.8,31.4c-3.1,0.9-6.3,1.4-9.6,1.4c-2.4,0-4.9,0-7.3,0.2c-1.1,0.1-2.2,0.3-3.2,0.7c-1,0.3-1.7,1.2-1.8,2.2
	c-0.1,1.1,0.5,1.8,1.4,2.3c1.6,0.9,3.4,1.2,5.1,1.6c4.1,0.8,8.2,1.3,12.3,2.2c3.1,0.6,6.2,1.6,9.1,2.9c0.6,0.3,1.2,0.6,1.8,0.9
	c5.3,2.9,8.5,7.2,9,13.3c0.5,7.1-1.8,12.9-7.8,17c-1.8,1.2-3.7,2.2-5.8,2.9c-3.6,1.3-7.4,2.1-11.2,2.4c-4.6,0.5-9.3,0.5-13.9,0.2
	c-4.8-0.3-9.5-1-14-2.6c-2.4-0.8-4.7-2.1-6.7-3.8c-2.5-2-4.1-5-4.4-8.2c-0.4-3.2,0.8-6.4,3.1-8.7c1.7-1.7,3.7-3.1,5.8-4.2
	c1.9-0.9,3.8-1.7,5.8-2.4L181.4,452.2z M192,412.1c0,0.5,0,1.1,0,1.6c0.3,4.1,2.7,6.9,6.6,7.7c1,0.2,2,0.2,3,0.2
	c4.1-0.2,6.9-2.2,8.4-5.9c1.3-3.2,1.7-6.8,1.1-10.3c-0.4-2.8-2.3-5.2-4.9-6.2c-5.5-2.2-11.1,0.4-13.1,5.9
	C192.4,407.3,192,409.7,192,412.1L192,412.1z M197,470.1h4.1c0.8,0,1.5-0.1,2.3-0.2c2-0.2,3.9-0.7,5.8-1.5c3.1-1.6,3.4-6.3,0.2-8.1
	c-1.1-0.6-2.2-1.1-3.4-1.4c-3.4-1-6.8-1.7-10.3-2.4c-0.6-0.2-1.3-0.3-2-0.2c-2.4,0.3-4.7,0.8-6.9,1.7c-1.1,0.4-2.1,1.1-2.9,1.9
	c-2.1,2.1-2.1,5.4,0,7.5c0.3,0.3,0.6,0.5,0.9,0.7c1,0.6,2.1,1.1,3.3,1.4C191,470,194,470.3,197,470.1L197,470.1z M117.7,449.9
	c0.3-2,0.5-3.8,0.8-5.7c-0.5,0.2-0.9,0.5-1.3,0.8c-3.4,2.5-6.9,4.5-11,5.4c-6.8,1.6-13.1,0.8-18.8-3.5c-3.3-2.6-5.9-6-7.4-9.9
	c-1.8-4.3-2.7-8.9-2.6-13.6c-0.1-5.6,1.1-11.2,3.4-16.3c3.8-8.5,10.2-14.3,18.6-18.1c4.6-2,9.5-3.3,14.4-3.9
	c7.1-1,14.2-0.8,21.4-0.2c3.3,0.3,6.5,0.8,9.7,1.5c0.9,0.2,0.9,0.2,0.7,1.1c-1,6.8-1.9,13.6-2.9,20.3c-0.9,6.5-1.8,13-2.7,19.5
	c-0.8,5.9-1.7,11.9-2.5,17.8c-0.2,1.3-0.4,2.6-0.5,3.9c-0.1,0.6-0.3,0.8-0.9,0.8L117.7,449.9L117.7,449.9z M120.7,400.4
	c-2.2,0-4.3,0.2-6.5,0.6c-5,1.1-9.3,3.5-12.3,7.8c-3.9,5.6-5.1,11.8-4.5,18.5c0.1,1.8,0.7,3.6,1.5,5.1c1.2,2.3,3.4,3.9,5.9,4.3
	c1.2,0.2,2.4,0.2,3.6,0c4.3-0.6,8-2.5,11.4-5.1c0.4-0.3,0.6-0.7,0.7-1.2c0.2-1.4,0.4-2.8,0.6-4.3c0.7-4.9,1.4-9.8,2.1-14.8
	c0.5-3.4,0.9-6.7,1.4-10.1c0.1-0.6-0.1-0.8-0.6-0.8C122.7,400.5,121.6,400.5,120.7,400.4L120.7,400.4z M272.6,444.3
	c-0.5,0-0.7,0.4-1,0.6c-3.4,2.5-7,4.6-11.1,5.5c-6.4,1.5-12.5,0.9-18-2.9c-4.1-2.8-6.8-6.7-8.6-11.3c-1.5-3.9-2.2-8.1-2.2-12.3
	c0-7.5,1.6-14.5,5.6-20.8c4.3-7,10.6-11.7,18.2-14.7c4.8-1.8,9.7-3,14.8-3.4c6.4-0.6,12.8-0.6,19.2,0.1c3.3,0.3,6.6,0.8,9.9,1.5
	c0.8,0.2,0.9,0.2,0.7,1c-0.6,4.1-1.2,8.3-1.8,12.4c-0.7,4.8-1.4,9.7-2.1,14.5c-0.8,5.4-1.5,10.7-2.3,16.1c-0.7,4.9-1.4,9.8-2.1,14.6
	c-0.2,1.3-0.3,2.5-0.5,3.8c-0.2,1.1-0.2,1.1-1.2,1.1h-17c-0.4,0.1-0.7,0-1.1-0.1c0.1-1.3,0.3-2.6,0.5-3.9
	C272.7,445.3,272.7,444.8,272.6,444.3c0.1,0,0.1,0,0.1-0.1c0,0,0-0.1,0-0.1C272.6,444.2,272.6,444.3,272.6,444.3L272.6,444.3z
	 M274.9,400.4c-1.7,0-3.3,0.2-5,0.4c-7.3,1.2-12.7,5-15.8,11.8c-1.6,3.5-2.4,7.3-2.5,11.2c-0.2,2.7,0.3,5.5,1.4,8
	c1.6,3.4,4.2,5.1,8,5.1c5.1-0.1,9.4-2.2,13.4-5.3c0.3-0.2,0.5-0.6,0.5-0.9c0.4-2.9,0.8-5.9,1.2-8.8l2.1-14.8
	c0.3-1.9,0.5-3.7,0.8-5.6c0.1-0.8,0.1-0.9-0.8-0.9C276.9,400.5,275.9,400.5,274.9,400.4L274.9,400.4z M77.5,403.4
	c0.7-5.1,1.4-10.2,2.2-15.3c0.2-1.4,0.2-1.4-1.2-1.7c-7.5-1.7-15-2.4-22.7-1.5c-6.2,0.7-12.2,2.7-17.5,5.8
	c-12.2,7.2-19.4,20.2-17.1,34.9c0.7,5.3,2.9,10.2,6.3,14.3c5.9,7.1,13.7,10.5,22.8,11.1c7.4,0.5,14.8-0.4,22.1-2
	c1.2-0.3,1.1-0.3,1.3-1.5c0.4-3.5,0.9-6.9,1.4-10.4c0.2-1.9,0.5-3.8,0.7-5.7c-0.2,0-0.2-0.1-0.3,0c-0.4,0.1-0.8,0.3-1.1,0.4
	c-4.7,1.8-9.5,3.4-14.6,3.6c-3.5,0.2-7.1,0-10.4-1.3c-4.4-1.7-7.2-4.8-8.1-9.4c-1.2-5.2-0.1-10.6,3.1-14.8c3.2-4.3,7.5-6.8,12.6-8.1
	c3.3-0.9,6.7-0.8,10.1-0.7c1.4,0,2.8,0.3,4.2,0.7c2.1,0.6,4.1,1.3,6.3,2.1C77.5,403.7,77.5,403.6,77.5,403.4z M144.8,449.9h17.4
	c1,0,1,0,1.1-1c0.6-4.2,1.2-8.4,1.8-12.6c1.2-8.3,2.3-16.5,3.5-24.7c1.2-8.5,2.4-17,3.6-25.5c1.4-9.7,2.7-19.3,4.1-29
	c0.2-1.2,0.3-2.4,0.5-3.6c-0.1-0.1-0.2-0.1-0.3-0.1c-6.1,0-12.1,0-18.2,0c-0.6,0-0.7,0.3-0.8,0.8c-0.7,5-1.4,9.9-2.1,14.8
	c-0.7,4.9-1.4,9.8-2.1,14.6c-0.7,4.8-1.3,9.5-2,14.3c-0.7,4.8-1.4,9.7-2,14.5c-0.8,5.4-1.5,10.8-2.3,16.2c-0.8,5.5-1.5,11-2.3,16.4
	c-0.2,1.6-0.4,3.2-0.7,4.9L144.8,449.9z"/>
<path class="st1" d="M358.7,336.8c0.1-0.4,0.3-0.7,0.5-1.1c1.9-3.3,3.4-6.7,4.2-10.4c0.8-4.1,0.5-8.1-1.9-11.7
	c-1.7-2.5-4.1-4.6-6.9-5.9c-2.9-1.4-5.9-2.4-9.1-2.9c-5.6-0.9-11.3-1.1-17-0.6c-12.8,0.9-25.1,3.9-37.2,8
	c-19.2,6.4-37.3,15.4-54.1,26.8c-8.4,5.6-16.3,12-23.4,19.2c-3,3-5.7,6.3-8.2,9.7c-0.1,0.2-0.2,0.3-0.4,0.5
	c-0.4-0.2-0.2-0.5-0.2-0.7c0-5,1.1-9.7,2.8-14.3c2.7-7.1,6.5-13.5,11-19.5c6.2-8.3,13.4-15.8,21.2-22.6
	c14.9-12.9,31.6-23.6,49.5-31.8c10.3-4.8,21.1-8.6,32.1-11.3c5.7-1.4,11.5-2.4,17.4-3c5.1-0.5,10.2-0.5,15.2,0
	c5.7,0.6,11.2,1.9,16.3,4.6c4.6,2.5,8.3,6,10.5,10.9c1.8,4,2.4,8.4,2,12.8c-0.7,7.9-3.7,15-7.6,21.8c-4.2,7.1-9.2,13.8-14.8,19.8
	c-0.5,0.7-1.2,1.3-1.9,1.9L358.7,336.8z M417.4,173c-1.1-3.3-3-6.2-5.7-8.5c-4.2-3.5-9.2-4.3-14.5-3.6c-3.7,0.5-7.2,1.7-10.5,3.4
	c-5.6,2.9-10.7,6.6-15.2,11.1c-10.7,10.5-18.8,23.3-23.6,37.5c-2.7,7.9-4.3,16-3.6,24.4c0.2,3.5,1.1,7,2.5,10.2c1.5,3.2,3.5,6,6.6,8
	c4.1,2.6,8.6,3.1,13.3,2.4c4-0.7,7.8-2,11.3-4c5.4-2.9,10.2-6.7,14.5-11c10.5-10.5,18.5-23.4,23.1-37.5c2.2-6.4,3.4-13.1,3.6-19.9
	C419.3,181,418.9,176.9,417.4,173z M341.9,190.1c-0.3-3.6-1.4-7.2-3.1-10.4c-3.9-7.1-10.3-9.8-17.9-9c-3.8,0.5-7.4,1.6-10.8,3.4
	c-5.6,2.9-10.8,6.7-15.2,11.2c-10.6,10.5-18.5,23.2-23.2,37.3c-2.7,8-4.3,16.2-3.6,24.7c0.2,3.4,1,6.7,2.3,9.8
	c3.3,7.7,9.8,11.6,18.1,10.9c3.8-0.4,7.5-1.5,10.9-3.2c5.5-2.7,10.6-6.4,15-10.7c11.1-10.7,19.4-24,24.2-38.6
	c2.4-6.8,3.6-14,3.6-21.2C342.1,192.9,342,191.5,341.9,190.1z M260.3,251.1c-0.2-3.1-1-6.1-2.5-8.8c-2.2-3.8-5.5-5.8-10-5.8
	c-2.7,0-5.3,0.6-7.7,1.7c-4.4,2-8.4,4.8-11.9,8.3c-9.8,9.5-16.5,21-20.4,34c-1.7,5.7-2.7,11.6-2.2,17.7c0.2,2.8,0.9,5.5,2.2,8.1
	c2.6,4.9,7,6.9,12.4,6.1c2.7-0.4,5.4-1.4,7.8-2.7c3.8-2.1,7.2-4.7,10.2-7.7c8.5-8.5,14.6-18.5,18.6-29.8c2.1-5.8,3.4-11.7,3.3-17.8
	C260.3,253.2,260.4,252.2,260.3,251.1L260.3,251.1z M391.9,287.4c0.3,1.6,0.8,3.1,1.5,4.6c2.7,5.7,7.5,7.7,13.3,6.7
	c2.8-0.5,5.5-1.5,7.9-3c3.3-1.9,6.3-4.2,9-6.8c10.9-10.6,18.4-24.2,21.6-39.1c1.2-4.8,1.4-9.8,0.6-14.7c-0.4-2.7-1.4-5.2-2.9-7.4
	c-2.5-3.5-5.9-4.9-10.1-4.7c-2.6,0.2-5.2,0.8-7.5,2c-4.3,2.1-8.3,4.9-11.7,8.4c-8.7,8.6-14.8,18.7-18.9,30.2
	c-2.2,6-3.4,12.4-3.4,18.8C391.4,284,391.6,285.7,391.9,287.4L391.9,287.4z M419.2,316.1v8.8c0,0.8,0,0.8,0.9,0.9h0.5
	c1.1,0,1.1,0,1.1-1v-11.1c0-1.1,0-1.1-1.2-1.1h-1.3c-1.5,0-1.2,0-1.6,1.1c-0.9,2.3-1.8,4.7-2.7,7.1c-0.1,0.3-0.1,0.6-0.6,0.7
	c-0.2-0.4-0.3-0.7-0.5-1.1c-0.9-2.4-1.9-4.7-2.7-7.1c-0.1-0.5-0.6-0.8-1.1-0.7c-0.8,0-1.5,0-2.3,0c-0.5,0-0.7,0.2-0.7,0.7v11.1
	c0,1.6-0.1,1.4,1.4,1.4c1,0,1,0,1-1.1v-7.6c0-0.3,0-0.6,0.1-0.9c0.3,0.4,0.5,0.8,0.6,1.3c1,2.5,1.9,5,2.9,7.5
	c0.1,0.6,0.6,0.9,1.2,0.9c0.6,0.1,1.2-0.3,1.3-0.9c0.4-1.3,0.9-2.5,1.4-3.7l2-5.1L419.2,316.1z M400.3,315.7c0-0.9,0-0.9,0.9-1
	c0.9,0,1.7,0,2.5,0c0.4,0,0.6-0.1,0.6-0.5v-0.7c0.1-0.6-0.2-0.8-0.8-0.8c-3,0-6.1,0-9.1,0c-0.6,0-0.8,0.2-0.7,0.8c0,0.2,0,0.3,0,0.5
	c-0.1,0.6,0.1,0.9,0.8,0.8c0.8,0,1.5,0,2.3,0c1,0,1,0,1,1v8.4c0,1.9-0.4,1.7,1.8,1.7c0.6,0,0.8-0.2,0.8-0.8c0-1.6,0-3.1,0-4.7
	C400.3,318.8,400.3,317.2,400.3,315.7L400.3,315.7z M358.4,337.4L358.4,337.4L358.4,337.4L358.4,337.4z M358.7,336.8
	c-0.1,0.1-0.2,0.2-0.1,0.2c0.1,0.1,0.2,0,0.2-0.1L358.7,336.8z"/>
</svg>
